<?xml version="1.0" encoding="UTF-8" standalone="no"?>
<!-- Created with Inkscape (http://www.inkscape.org/) -->

<svg
   xmlns:dc="http://purl.org/dc/elements/1.1/"
   xmlns:cc="http://creativecommons.org/ns#"
   xmlns:rdf="http://www.w3.org/1999/02/22-rdf-syntax-ns#"
   xmlns:svg="http://www.w3.org/2000/svg"
   xmlns="http://www.w3.org/2000/svg"
   xmlns:xlink="http://www.w3.org/1999/xlink"
   xmlns:sodipodi="http://sodipodi.sourceforge.net/DTD/sodipodi-0.dtd"
   xmlns:inkscape="http://www.inkscape.org/namespaces/inkscape"
   width="1238.5779mm"
   height="290.31119mm"
   viewBox="0 0 4388.6618 1028.6617"
   id="svg2"
   version="1.1"
   inkscape:version="0.91 r13725"
   sodipodi:docname="icons.svg">
  <defs
     id="defs4" />
  <sodipodi:namedview
     id="base"
     pagecolor="#ffffff"
     bordercolor="#666666"
     borderopacity="1.0"
     inkscape:pageopacity="0.0"
     inkscape:pageshadow="2"
     inkscape:zoom="0.24240873"
     inkscape:cx="2496.3324"
     inkscape:cy="628.18868"
     inkscape:document-units="px"
     inkscape:current-layer="layer1"
     showgrid="true"
     inkscape:object-paths="true"
     inkscape:object-nodes="true"
     inkscape:snap-smooth-nodes="true"
     showborder="true"
     inkscape:window-width="1920"
     inkscape:window-height="1048"
     inkscape:window-x="0"
     inkscape:window-y="14"
     inkscape:window-maximized="0"
     inkscape:snap-bbox="true"
     inkscape:bbox-nodes="true"
     inkscape:snap-nodes="true"
     inkscape:snap-bbox-midpoints="true"
     fit-margin-top="100"
     fit-margin-left="100"
     fit-margin-right="100"
     fit-margin-bottom="100">
    <inkscape:grid
       type="xygrid"
       id="grid4136"
       spacingx="10"
       spacingy="10"
       empspacing="4"
       originx="394.33078"
       originy="594.33097" />
  </sodipodi:namedview>
  <metadata
     id="metadata7">
    <rdf:RDF>
      <cc:Work
         rdf:about="">
        <dc:format>image/svg+xml</dc:format>
        <dc:type
           rdf:resource="http://purl.org/dc/dcmitype/StillImage" />
        <dc:title></dc:title>
      </cc:Work>
    </rdf:RDF>
  </metadata>
  <g
     inkscape:label="Layer 1"
     inkscape:groupmode="layer"
     id="layer1"
     transform="translate(394.33071,-618.03129)">
    <rect
       style="opacity:1;fill:#cccccc;fill-opacity:1;stroke:none;stroke-width:4;stroke-linecap:square;stroke-linejoin:round;stroke-miterlimit:4;stroke-dasharray:none;stroke-dashoffset:0;stroke-opacity:1"
       id="rect4943"
       width="320"
       height="320"
       x="1880"
       y="972.36218" />
    <rect
       y="972.36218"
       x="1400"
       height="320"
       width="320"
       id="rect4941"
       style="opacity:1;fill:#cccccc;fill-opacity:1;stroke:none;stroke-width:4;stroke-linecap:square;stroke-linejoin:round;stroke-miterlimit:4;stroke-dasharray:none;stroke-dashoffset:0;stroke-opacity:1" />
    <rect
       style="opacity:1;fill:#cccccc;fill-opacity:1;stroke:none;stroke-width:4;stroke-linecap:square;stroke-linejoin:round;stroke-miterlimit:4;stroke-dasharray:none;stroke-dashoffset:0;stroke-opacity:1"
       id="rect4937"
       width="320"
       height="320"
       x="920"
       y="972.36206" />
    <rect
       y="972.36218"
       x="440"
       height="320"
       width="320"
       id="rect4935"
       style="opacity:1;fill:#cccccc;fill-opacity:1;stroke:none;stroke-width:4;stroke-linecap:square;stroke-linejoin:round;stroke-miterlimit:4;stroke-dasharray:none;stroke-dashoffset:0;stroke-opacity:1" />
    <rect
       style="opacity:1;fill:#cccccc;fill-opacity:1;stroke:none;stroke-width:4;stroke-linecap:square;stroke-linejoin:round;stroke-miterlimit:4;stroke-dasharray:none;stroke-dashoffset:0;stroke-opacity:1"
       id="rect4933"
       width="320"
       height="320"
       x="-40"
       y="972.36218" />
    <path
       style="fill:#1a1a1a;fill-rule:evenodd;stroke:#1a1a1a;stroke-width:4;stroke-linecap:butt;stroke-linejoin:round;stroke-miterlimit:4;stroke-dasharray:none;stroke-opacity:1"
       d="m -19.999956,342.36183 0,60 120.000006,0 0,-60 20,0 -29.642862,-31.07143 0,-28.92857 -20,0 0,8.92857 -30.357144,-28.92857 -80.000003,80 z"
       id="path4140"
       inkscape:connector-curvature="0"
       sodipodi:nodetypes="cccccccccccc"
       inkscape:export-xdpi="15.000007"
       inkscape:export-ydpi="15.000007" />
    <g
       id="g4901"
       style="fill:#1a1a1a;stroke:#1a1a1a;stroke-width:4;stroke-linejoin:round;stroke-miterlimit:4;stroke-dasharray:none"
       transform="translate(-41.999676,-408.00038)">
      <rect
         y="652.36218"
         x="440"
         height="200"
         width="40"
         id="rect4154"
         style="opacity:1;fill:#1a1a1a;fill-opacity:1;stroke:#1a1a1a;stroke-width:4;stroke-linecap:square;stroke-linejoin:round;stroke-miterlimit:4;stroke-dasharray:none;stroke-dashoffset:0;stroke-opacity:1" />
      <rect
         y="692.36218"
         x="490"
         height="160"
         width="60"
         id="rect4158"
         style="opacity:1;fill:#1a1a1a;fill-opacity:1;stroke:#1a1a1a;stroke-width:4;stroke-linecap:square;stroke-linejoin:round;stroke-miterlimit:4;stroke-dasharray:none;stroke-dashoffset:0;stroke-opacity:1" />
      <rect
         y="662.36218"
         x="560"
         height="190"
         width="30"
         id="rect4160"
         style="opacity:1;fill:#1a1a1a;fill-opacity:1;stroke:#1a1a1a;stroke-width:4;stroke-linecap:square;stroke-linejoin:round;stroke-miterlimit:4;stroke-dasharray:none;stroke-dashoffset:0;stroke-opacity:1" />
      <path
         inkscape:connector-curvature="0"
         id="path4162"
         d="m 600,692.36221 40,-10 39.99999,160 -39.99999,10 z"
         style="fill:#1a1a1a;fill-rule:evenodd;stroke:#1a1a1a;stroke-width:4;stroke-linecap:butt;stroke-linejoin:round;stroke-miterlimit:4;stroke-dasharray:none;stroke-opacity:1" />
    </g>
    <g
       id="g4204"
       inkscape:export-xdpi="3.5999999"
       inkscape:export-ydpi="3.5999999"
       transform="translate(4380.5,-3210)">
      <path
         style="fill:#000000;fill-rule:evenodd;stroke:#ffffff;stroke-width:1;stroke-linecap:butt;stroke-linejoin:miter;stroke-miterlimit:4;stroke-dasharray:none;stroke-opacity:1"
         d="m -2040,2892.3622 0,-480 -290,0 40,-10 280,0 0,460 -10,10 40,0 0,-500 -310,0 c -10,0 -10,0 -30,10 l -40,20 c -20,10 -20,10 -20,20 l 0,470 z"
         id="path4206"
         inkscape:connector-curvature="0"
         sodipodi:nodetypes="cccccccccsssscc" />
      <path
         style="fill:#ffffff;fill-rule:evenodd;stroke:#ffffff;stroke-width:1;stroke-linecap:butt;stroke-linejoin:miter;stroke-miterlimit:4;stroke-dasharray:none;stroke-opacity:1"
         d="m -2330,2412.3622 c 0,0 13.3333,-6.6667 20,-10 20,-10 20,-10 30,-10 93.3333,0 280,0 280,0 l 0,470 -40,20 0,-470 z"
         id="path4208"
         inkscape:connector-curvature="0"
         sodipodi:nodetypes="cssccccc" />
      <path
         sodipodi:nodetypes="cccccccccsssscc"
         inkscape:connector-curvature="0"
         id="path4212"
         d="m -2040,2892.3622 0,-480 -290,0 40,-10 280,0 0,460 -10,10 40,0 0,-500 -310,0 c -10,0 -10,0 -30,10 l -40,20 c -20,10 -20,10 -20,20 l 0,470 z"
         style="fill:#000000;fill-rule:evenodd;stroke:#ffffff;stroke-width:1;stroke-linecap:butt;stroke-linejoin:miter;stroke-miterlimit:4;stroke-dasharray:none;stroke-opacity:1" />
      <path
         sodipodi:nodetypes="cssccccc"
         inkscape:connector-curvature="0"
         id="path4214"
         d="m -2330,2412.3622 c 0,0 13.3333,-6.6667 20,-10 20,-10 20,-10 30,-10 93.3333,0 280,0 280,0 l 0,470 -40,20 0,-470 z"
         style="fill:#ffffff;fill-rule:evenodd;stroke:#ffffff;stroke-width:1;stroke-linecap:butt;stroke-linejoin:miter;stroke-miterlimit:4;stroke-dasharray:none;stroke-opacity:1" />
      <path
         sodipodi:nodetypes="ccccccc"
         inkscape:connector-curvature="0"
         id="path4216"
         d="m -2340,2372.3622 20,-10 350,0 0,530 -10,10 0,-530 z"
         style="fill:#ffffff;fill-rule:evenodd;stroke:none;stroke-width:1px;stroke-linecap:butt;stroke-linejoin:miter;stroke-opacity:1" />
    </g>
    <g
       id="g4239"
       transform="translate(4280.5,-3150)"
       inkscape:export-xdpi="3.5999999"
       inkscape:export-ydpi="3.5999999">
      <path
         sodipodi:nodetypes="cccccccccsssscc"
         inkscape:connector-curvature="0"
         id="path4241"
         d="m -2040,2892.3622 0,-480 -290,0 40,-10 280,0 0,460 -10,10 40,0 0,-500 -310,0 c -10,0 -10,0 -30,10 l -40,20 c -20,10 -20,10 -20,20 l 0,470 z"
         style="fill:#000000;fill-rule:evenodd;stroke:#ffffff;stroke-width:1;stroke-linecap:butt;stroke-linejoin:miter;stroke-miterlimit:4;stroke-dasharray:none;stroke-opacity:1" />
      <path
         sodipodi:nodetypes="cssccccc"
         inkscape:connector-curvature="0"
         id="path4243"
         d="m -2330,2412.3622 c 0,0 13.3333,-6.6667 20,-10 20,-10 20,-10 30,-10 93.3333,0 280,0 280,0 l 0,470 -40,20 0,-470 z"
         style="fill:#ffffff;fill-rule:evenodd;stroke:#ffffff;stroke-width:1;stroke-linecap:butt;stroke-linejoin:miter;stroke-miterlimit:4;stroke-dasharray:none;stroke-opacity:1" />
      <path
         style="fill:#000000;fill-rule:evenodd;stroke:#ffffff;stroke-width:1;stroke-linecap:butt;stroke-linejoin:miter;stroke-miterlimit:4;stroke-dasharray:none;stroke-opacity:1"
         d="m -2040,2892.3622 0,-480 -290,0 40,-10 280,0 0,460 -10,10 40,0 0,-500 -310,0 c -10,0 -10,0 -30,10 l -40,20 c -20,10 -20,10 -20,20 l 0,470 z"
         id="path4245"
         inkscape:connector-curvature="0"
         sodipodi:nodetypes="cccccccccsssscc" />
      <path
         style="fill:#ffffff;fill-rule:evenodd;stroke:#ffffff;stroke-width:1;stroke-linecap:butt;stroke-linejoin:miter;stroke-miterlimit:4;stroke-dasharray:none;stroke-opacity:1"
         d="m -2330,2412.3622 c 0,0 13.3333,-6.6667 20,-10 20,-10 20,-10 30,-10 93.3333,0 280,0 280,0 l 0,470 -40,20 0,-470 z"
         id="path4247"
         inkscape:connector-curvature="0"
         sodipodi:nodetypes="cssccccc" />
      <path
         style="fill:#ffffff;fill-rule:evenodd;stroke:none;stroke-width:1px;stroke-linecap:butt;stroke-linejoin:miter;stroke-opacity:1"
         d="m -2340,2372.3622 20,-10 350,0 0,530 -10,10 0,-530 z"
         id="path4249"
         inkscape:connector-curvature="0"
         sodipodi:nodetypes="ccccccc" />
    </g>
    <g
       id="g4907"
       style="fill:#1a1a1a;stroke:#1a1a1a;stroke-width:4;stroke-linejoin:round;stroke-miterlimit:4;stroke-dasharray:none"
       transform="translate(-36.000219,-480.00038)">
      <path
         inkscape:export-ydpi="14.01304"
         inkscape:export-xdpi="14.01304"
         sodipodi:nodetypes="ccccc"
         inkscape:connector-curvature="0"
         id="path4153"
         d="m 919.99999,712.36221 240.00001,0 0,40 -240.00001,0 z"
         style="fill:#1a1a1a;fill-rule:evenodd;stroke:#1a1a1a;stroke-width:4;stroke-linecap:butt;stroke-linejoin:round;stroke-miterlimit:4;stroke-dasharray:none;stroke-opacity:1" />
      <path
         style="fill:#ffffff;fill-rule:evenodd;stroke:#ffffff;stroke-width:4;stroke-linecap:butt;stroke-linejoin:round;stroke-miterlimit:4;stroke-dasharray:none;stroke-opacity:1"
         d="m 980,732.36221 -40.00001,-40 30,-30 40.00001,40 40,-40 30,30 -40,40 40,40 -30,30 -40,-40 -40.00001,40 -30,-30 z"
         id="path4911"
         inkscape:connector-curvature="0"
         sodipodi:nodetypes="ccccccccccccc"
         inkscape:export-xdpi="14.01304"
         inkscape:export-ydpi="14.01304" />
      <path
         inkscape:export-ydpi="14.01304"
         inkscape:export-xdpi="14.01304"
         sodipodi:nodetypes="ccccccccccccc"
         inkscape:connector-curvature="0"
         id="path4151"
         d="m 989.99999,732.36221 -40.00001,-40 20,-20 40.00002,40 40,-40 20,20 -40,40 40,40 -20,20 -40,-40 -40.00002,40 -20,-20 z"
         style="fill:#1a1a1a;fill-rule:evenodd;stroke:#1a1a1a;stroke-width:4;stroke-linecap:butt;stroke-linejoin:round;stroke-miterlimit:4;stroke-dasharray:none;stroke-opacity:1" />
    </g>
    <path
       style="opacity:1;fill:#1a1a1a;fill-opacity:1;stroke:#1a1a1a;stroke-width:4;stroke-linecap:square;stroke-linejoin:round;stroke-miterlimit:4;stroke-dasharray:none;stroke-dashoffset:0;stroke-opacity:1"
       d="m 1538.0003,264.36095 0,22.64258 a 80,80 0 0 0 -20.5664,8.50781 l -16.002,-16.00195 -28.2851,28.2832 16.0078,16.00781 a 80,80 0 0 0 -8.5527,20.56055 l -22.6016,0 0,40 22.6426,0 a 80,80 0 0 0 8.5078,20.5664 l -16.0039,16.00391 28.2851,28.2832 16.0079,-16.00781 a 80,80 0 0 0 20.5605,8.55274 l 0,22.60156 40,0 0,-22.64258 a 80,80 0 0 0 20.5664,-8.50586 l 16.002,16.00195 28.2851,-28.2832 -16.0078,-16.00781 a 80,80 0 0 0 8.5527,-20.5625 l 22.6016,0 0,-40 -22.6426,0 a 80,80 0 0 0 -8.5058,-20.56641 l 16.0019,-16.00195 -28.2851,-28.2832 -16.0059,16.00585 a 80,80 0 0 0 -20.5625,-8.55273 l 0,-22.60156 -40,0 z m 20,80 a 20,20 0 0 1 20,20 20,20 0 0 1 -20,20 20,20 0 0 1 -20,-20 20,20 0 0 1 20,-20 z"
       id="path4155"
       inkscape:export-xdpi="14.01304"
       inkscape:export-ydpi="14.01304"
       inkscape:connector-curvature="0" />
    <path
       style="opacity:1;fill:#1a1a1a;fill-opacity:1;stroke:none;stroke-width:10;stroke-linecap:square;stroke-linejoin:round;stroke-miterlimit:4;stroke-dasharray:none;stroke-dashoffset:0;stroke-opacity:1"
       d="m 2038.0007,244.36095 a 120.00044,120.00044 0 0 0 -120.0004,120.00044 120.00044,120.00044 0 0 0 120.0004,120.00044 120.00044,120.00044 0 0 0 84.8001,-35.20033 l -42.4,-42.40006 a 60.00022,60.00022 0 0 1 -42.4001,17.60017 60.00022,60.00022 0 0 1 -60.0002,-60.00022 60.00022,60.00022 0 0 1 60.0002,-60.00022 60.00022,60.00022 0 0 1 60.0003,60.00022 l -30.0002,0 60.0003,60.00022 60.0002,-60.00022 -30.0001,0 A 120.00044,120.00044 0 0 0 2038.0007,244.36095 Z"
       id="path4868"
       inkscape:export-xdpi="6.75"
       inkscape:export-ydpi="6.75"
       inkscape:connector-curvature="0" />
    <use
       x="0"
       y="0"
       xlink:href="#path4140"
       id="use4913"
       transform="matrix(1.4549508,0,0,1.4549508,61.801891,648.79204)"
       width="100%"
       height="100%" />
    <use
       x="0"
       y="0"
       xlink:href="#g4901"
       id="use4915"
       transform="matrix(1.0321439,0,0,1.0321439,71.270676,791.65258)"
       width="100%"
       height="100%" />
    <use
       x="0"
       y="0"
       xlink:href="#path4155"
       id="use4919"
       transform="matrix(1.0784314,0,0,1.0784314,-120.19644,739.42391)"
       width="100%"
       height="100%" />
    <text
       xml:space="preserve"
       style="font-style:normal;font-variant:normal;font-weight:normal;font-stretch:normal;font-size:22.5px;line-height:125%;font-family:'DejaVu Sans';-inkscape-font-specification:'DejaVu Sans';text-align:start;letter-spacing:0px;word-spacing:0px;writing-mode:lr-tb;text-anchor:start;fill:#000000;fill-opacity:1;stroke:none;stroke-width:1px;stroke-linecap:butt;stroke-linejoin:miter;stroke-opacity:1"
       x="-1323.369"
       y="377.94788"
       id="text4921"
       sodipodi:linespacing="125%"><tspan
         sodipodi:role="line"
         id="tspan4923"
         x="-1323.369"
         y="377.94788"
         style="font-size:60px">Originals (do not resize):</tspan></text>
    <text
       sodipodi:linespacing="125%"
       id="text4925"
       y="1148.9147"
       x="-1708.2909"
       style="font-style:normal;font-variant:normal;font-weight:normal;font-stretch:normal;font-size:22.5px;line-height:125%;font-family:'DejaVu Sans';-inkscape-font-specification:'DejaVu Sans';text-align:start;letter-spacing:0px;word-spacing:0px;writing-mode:lr-tb;text-anchor:start;fill:#000000;fill-opacity:1;stroke:none;stroke-width:1px;stroke-linecap:butt;stroke-linejoin:miter;stroke-opacity:1"
       xml:space="preserve"><tspan
         style="font-size:60px"
         y="1148.9147"
         x="-1708.2909"
         id="tspan4927"
         sodipodi:role="line">Clones/duplicates resized for export:</tspan></text>
    <path
       inkscape:connector-curvature="0"
       inkscape:export-ydpi="6.75"
       inkscape:export-xdpi="6.75"
       id="path4929"
       d="m 2040,1032.3622 c -55.2287,0 -100.0004,44.7717 -100.0004,100.0004 0,55.2287 44.7717,100.0005 100.0004,100.0005 26.5128,-0.023 51.9311,-10.5745 70.6668,-29.3336 l -35.3334,-35.3334 c -9.3678,9.3795 -22.077,14.6551 -35.3334,14.6668 -27.6144,0 -50.0003,-22.3859 -50.0002,-50.0003 0,-27.6143 22.3858,-50.0002 50.0002,-50.0002 27.6144,0 50.0003,22.3858 50.0003,50.0002 l -25.0002,0 50.0003,50.0003 50.0002,-50.0003 -25.0001,0 c 0,-55.2287 -44.7718,-100.0004 -100.0005,-100.0004 z"
       style="opacity:1;fill:#1a1a1a;fill-opacity:1;stroke:none;stroke-width:10;stroke-linecap:square;stroke-linejoin:round;stroke-miterlimit:4;stroke-dasharray:none;stroke-dashoffset:0;stroke-opacity:1"
       sodipodi:nodetypes="ssccccsscccccs" />
    <g
       transform="translate(-36.000219,-304.00023)"
       style="fill:#1a1a1a;stroke:#1a1a1a;stroke-width:4;stroke-linejoin:round;stroke-miterlimit:4;stroke-dasharray:none"
       id="g4945">
      <path
         style="color:#000000;font-style:normal;font-variant:normal;font-weight:normal;font-stretch:normal;font-size:medium;line-height:normal;font-family:sans-serif;text-indent:0;text-align:start;text-decoration:none;text-decoration-line:none;text-decoration-style:solid;text-decoration-color:#000000;letter-spacing:normal;word-spacing:normal;text-transform:none;direction:ltr;block-progression:tb;writing-mode:lr-tb;baseline-shift:baseline;text-anchor:start;white-space:normal;clip-rule:nonzero;display:inline;overflow:visible;visibility:visible;opacity:1;isolation:auto;mix-blend-mode:normal;color-interpolation:sRGB;color-interpolation-filters:linearRGB;solid-color:#000000;solid-opacity:1;fill:#1a1a1a;fill-opacity:1;fill-rule:evenodd;stroke:none;stroke-width:4;stroke-linecap:butt;stroke-linejoin:round;stroke-miterlimit:4;stroke-dasharray:none;stroke-dashoffset:0;stroke-opacity:1;color-rendering:auto;image-rendering:auto;shape-rendering:auto;text-rendering:auto;enable-background:accumulate"
         d="m 922,638.36133 c -1.10452,1.1e-4 -1.99989,0.89548 -2,2 l 0,40 c 1.1e-4,1.10452 0.89548,1.99989 2,2 l 38,0 22,-22 -22,-22 -38,0 z m 142,0 -22,22 22,22 98,0 c 1.1045,-1.1e-4 1.9999,-0.89548 2,-2 l 0,-40 c -10e-5,-1.10452 -0.8955,-1.99989 -2,-2 l -98,0 z"
         transform="translate(-2.0000029,71.999916)"
         id="path4947"
         inkscape:connector-curvature="0" />
      <path
         style="color:#000000;font-style:normal;font-variant:normal;font-weight:normal;font-stretch:normal;font-size:medium;line-height:normal;font-family:sans-serif;text-indent:0;text-align:start;text-decoration:none;text-decoration-line:none;text-decoration-style:solid;text-decoration-color:#000000;letter-spacing:normal;word-spacing:normal;text-transform:none;direction:ltr;block-progression:tb;writing-mode:lr-tb;baseline-shift:baseline;text-anchor:start;white-space:normal;clip-rule:nonzero;display:inline;overflow:visible;visibility:visible;opacity:1;isolation:auto;mix-blend-mode:normal;color-interpolation:sRGB;color-interpolation-filters:linearRGB;solid-color:#000000;solid-opacity:1;fill:#1a1a1a;fill-opacity:1;fill-rule:evenodd;stroke:none;stroke-width:4;stroke-linecap:butt;stroke-linejoin:round;stroke-miterlimit:4;stroke-dasharray:none;stroke-dashoffset:0;stroke-opacity:1;color-rendering:auto;image-rendering:auto;shape-rendering:auto;text-rendering:auto;enable-background:accumulate"
         d="m 969.9707,670.36328 c -0.51995,0.007 -1.01663,0.21673 -1.38476,0.58399 l -20,20 c -0.78203,0.78128 -0.78203,2.04879 0,2.83007 l 38.58594,38.58594 -38.58594,38.58399 c -0.78203,0.78128 -0.78203,2.04879 0,2.83007 l 20,20 c 0.78106,0.78073 2.04706,0.78073 2.82812,0 L 1010,755.19141 l 38.5859,38.58593 c 0.7811,0.78079 2.0471,0.78079 2.8282,0 l 20,-20 c 0.782,-0.78128 0.782,-2.04879 0,-2.83007 l -38.586,-38.58399 38.586,-38.58594 c 0.782,-0.78128 0.782,-2.04879 0,-2.83007 l -20,-20 c -0.7811,-0.78079 -2.0471,-0.78079 -2.8282,0 L 1010,709.5332 971.41406,670.94727 c -0.3825,-0.38162 -0.90311,-0.59226 -1.44336,-0.58399 z"
         id="path4951"
         inkscape:connector-curvature="0"
         sodipodi:nodetypes="cccccccccccccccccccccc" />
    </g>
    <use
       x="0"
       y="0"
       xlink:href="#g4945"
       id="use4964"
       transform="translate(78.000239,706.00061)"
       width="100%"
       height="100%" />
    <path
       style="fill:#1a1a1a;fill-rule:evenodd;stroke:none;stroke-width:1px;stroke-linecap:butt;stroke-linejoin:miter;stroke-opacity:1"
       d="m 2321.9999,420.36167 0,-80.00001 120,0 0,-120 80,0 0,120 120,0 0,80.00001 -120,0 0,120 -80,0 0,-120 z"
       id="path4177"
       inkscape:connector-curvature="0" />
    <rect
       y="972.36206"
       x="2360"
       height="320"
       width="320"
       id="rect4181"
       style="opacity:1;fill:#cccccc;fill-opacity:1;stroke:none;stroke-width:4;stroke-linecap:square;stroke-linejoin:round;stroke-miterlimit:4;stroke-dasharray:none;stroke-dashoffset:0;stroke-opacity:1" />
    <path
       inkscape:connector-curvature="0"
       id="use4179"
       d="m 2400,1162.3621 0,-60.0001 90,0 0,-90 60,0 0,90 90,0 0,60.0001 -90,0 0,90 -60,0 0,-90 z"
       style="fill:#1a1a1a;fill-rule:evenodd;stroke:none;stroke-width:1px;stroke-linecap:butt;stroke-linejoin:miter;stroke-opacity:1" />
    <path
       inkscape:connector-curvature="0"
       id="path4178"
       d="m 2860.5787,521.78297 -56.5686,-56.56854 84.8529,-84.85282 -84.8529,-84.85281 56.5686,-56.56854 84.8528,84.85281 84.8528,-84.85281 56.5686,56.56854 -84.8529,84.85282 84.8529,84.85281 -56.5686,56.56854 -84.8528,-84.85281 z"
       style="fill:#1a1a1a;fill-rule:evenodd;stroke:none;stroke-width:1px;stroke-linecap:butt;stroke-linejoin:miter;stroke-opacity:1" />
    <rect
       style="opacity:1;fill:#cccccc;fill-opacity:1;stroke:none;stroke-width:4;stroke-linecap:square;stroke-linejoin:round;stroke-miterlimit:4;stroke-dasharray:none;stroke-dashoffset:0;stroke-opacity:1"
       id="rect4180"
       width="320"
       height="320"
       x="2840"
       y="972.362" />
    <path
       style="fill:#1a1a1a;fill-rule:evenodd;stroke:none;stroke-width:1px;stroke-linecap:butt;stroke-linejoin:miter;stroke-opacity:1"
       d="m 2928.0001,1252.3619 -48,-48 72.0001,-72 -72.0001,-71.9999 48,-48 72,72 72,-72 48,48 -72,71.9999 72,72 -48,48 -72,-71.9999 z"
       id="path4182"
       inkscape:connector-curvature="0" />
    <g
       id="g4195"
       transform="translate(-158.00006,-232.00045)">
      <rect
         y="572.36206"
         x="3440.0002"
         height="80"
         width="320"
         id="rect4189"
         style="opacity:1;fill:#1a1a1a;fill-opacity:1;stroke:none;stroke-width:4;stroke-linecap:square;stroke-linejoin:round;stroke-miterlimit:4;stroke-dasharray:none;stroke-dashoffset:0;stroke-opacity:1" />
      <rect
         transform="matrix(0.70710678,-0.70710678,0.70710678,0.70710678,0,0)"
         style="opacity:1;fill:#1a1a1a;fill-opacity:1;stroke:none;stroke-width:4;stroke-linecap:square;stroke-linejoin:round;stroke-miterlimit:4;stroke-dasharray:none;stroke-dashoffset:0;stroke-opacity:1"
         id="rect4191"
         width="240.00002"
         height="80.000008"
         x="1971.158"
         y="2837.1685" />
      <rect
         y="-2051.1577"
         x="2837.1685"
         height="80.000008"
         width="240.00002"
         id="rect4193"
         style="opacity:1;fill:#1a1a1a;fill-opacity:1;stroke:none;stroke-width:4;stroke-linecap:square;stroke-linejoin:round;stroke-miterlimit:4;stroke-dasharray:none;stroke-dashoffset:0;stroke-opacity:1"
         transform="matrix(0.70710678,0.70710678,-0.70710678,0.70710678,0,0)" />
    </g>
    <rect
       y="972.36194"
       x="3320.0002"
       height="320"
       width="320"
       id="rect4208"
       style="opacity:1;fill:#cccccc;fill-opacity:1;stroke:none;stroke-width:4;stroke-linecap:square;stroke-linejoin:round;stroke-miterlimit:4;stroke-dasharray:none;stroke-dashoffset:0;stroke-opacity:1" />
    <g
       id="g4200"
       transform="matrix(0.6666668,0,0,0.6666668,1093.3329,724.12061)">
      <rect
         style="opacity:1;fill:#1a1a1a;fill-opacity:1;stroke:none;stroke-width:4;stroke-linecap:square;stroke-linejoin:round;stroke-miterlimit:4;stroke-dasharray:none;stroke-dashoffset:0;stroke-opacity:1"
         id="rect4202"
         width="320"
         height="80"
         x="3440.0002"
         y="572.36206" />
      <rect
         y="2837.1685"
         x="1971.158"
         height="80.000008"
         width="240.00002"
         id="rect4204"
         style="opacity:1;fill:#1a1a1a;fill-opacity:1;stroke:none;stroke-width:4;stroke-linecap:square;stroke-linejoin:round;stroke-miterlimit:4;stroke-dasharray:none;stroke-dashoffset:0;stroke-opacity:1"
         transform="matrix(0.70710678,-0.70710678,0.70710678,0.70710678,0,0)" />
      <rect
         transform="matrix(0.70710678,0.70710678,-0.70710678,0.70710678,0,0)"
         style="opacity:1;fill:#1a1a1a;fill-opacity:1;stroke:none;stroke-width:4;stroke-linecap:square;stroke-linejoin:round;stroke-miterlimit:4;stroke-dasharray:none;stroke-dashoffset:0;stroke-opacity:1"
         id="rect4206"
         width="240.00002"
         height="80.000008"
         x="2837.1685"
         y="-2051.1577" />
    </g>
  </g>
</svg>
