<?xml version="1.0" encoding="UTF-8" standalone="no"?>
<!-- Created with Inkscape (http://www.inkscape.org/) -->

<svg
   xmlns:dc="http://purl.org/dc/elements/1.1/"
   xmlns:cc="http://creativecommons.org/ns#"
   xmlns:rdf="http://www.w3.org/1999/02/22-rdf-syntax-ns#"
   xmlns:svg="http://www.w3.org/2000/svg"
   xmlns="http://www.w3.org/2000/svg"
   xmlns:xlink="http://www.w3.org/1999/xlink"
   xmlns:sodipodi="http://sodipodi.sourceforge.net/DTD/sodipodi-0.dtd"
   xmlns:inkscape="http://www.inkscape.org/namespaces/inkscape"
   width="1509.5109mm"
   height="290.31116mm"
   viewBox="0 0 5348.6606 1028.6616"
   id="svg2"
   version="1.1"
   inkscape:version="0.91 r13725"
   sodipodi:docname="icons.svg">
  <defs
     id="defs4" />
  <sodipodi:namedview
     id="base"
     pagecolor="#ffffff"
     bordercolor="#666666"
     borderopacity="1.0"
     inkscape:pageopacity="0.0"
     inkscape:pageshadow="2"
     inkscape:zoom="0.83830444"
     inkscape:cx="5132.8439"
     inkscape:cy="497.89776"
     inkscape:document-units="px"
     inkscape:current-layer="layer1"
     showgrid="true"
     inkscape:object-paths="true"
     inkscape:object-nodes="true"
     inkscape:snap-smooth-nodes="true"
     showborder="true"
     inkscape:window-width="1920"
     inkscape:window-height="1048"
     inkscape:window-x="0"
     inkscape:window-y="14"
     inkscape:window-maximized="0"
     inkscape:snap-bbox="true"
     inkscape:bbox-nodes="true"
     inkscape:snap-nodes="true"
     inkscape:snap-bbox-midpoints="true"
     fit-margin-top="100"
     fit-margin-left="100"
     fit-margin-right="100"
     fit-margin-bottom="100">
    <inkscape:grid
       type="xygrid"
       id="grid4136"
       spacingx="10"
       spacingy="10"
       empspacing="4"
       originx="394.33029"
       originy="594.33078" />
  </sodipodi:namedview>
  <metadata
     id="metadata7">
    <rdf:RDF>
      <cc:Work
         rdf:about="">
        <dc:format>image/svg+xml</dc:format>
        <dc:type
           rdf:resource="http://purl.org/dc/dcmitype/StillImage" />
        <dc:title />
      </cc:Work>
    </rdf:RDF>
  </metadata>
  <g
     inkscape:label="Layer 1"
     inkscape:groupmode="layer"
     id="layer1"
     transform="translate(394.33028,-618.03119)">
    <path
       style="fill:#1a1a1a;fill-rule:evenodd;stroke:#1a1a1a;stroke-width:4;stroke-linecap:butt;stroke-linejoin:round;stroke-miterlimit:4;stroke-dasharray:none;stroke-opacity:1"
       d="m -19.999956,342.36183 0,60 120.000006,0 0,-60 20,0 -29.642862,-31.07143 0,-28.92857 -20,0 0,8.92857 -30.357144,-28.92857 -80.000003,80 z"
       id="path4140"
       inkscape:connector-curvature="0"
       sodipodi:nodetypes="cccccccccccc"
       inkscape:export-xdpi="15.000007"
       inkscape:export-ydpi="15.000007" />
    <g
       id="g4901"
       style="fill:#1a1a1a;stroke:#1a1a1a;stroke-width:4;stroke-linejoin:round;stroke-miterlimit:4;stroke-dasharray:none"
       transform="translate(-41.999676,-408.00038)">
      <rect
         y="652.36218"
         x="440"
         height="200"
         width="40"
         id="rect4154"
         style="opacity:1;fill:#1a1a1a;fill-opacity:1;stroke:#1a1a1a;stroke-width:4;stroke-linecap:square;stroke-linejoin:round;stroke-miterlimit:4;stroke-dasharray:none;stroke-dashoffset:0;stroke-opacity:1" />
      <rect
         y="692.36218"
         x="490"
         height="160"
         width="60"
         id="rect4158"
         style="opacity:1;fill:#1a1a1a;fill-opacity:1;stroke:#1a1a1a;stroke-width:4;stroke-linecap:square;stroke-linejoin:round;stroke-miterlimit:4;stroke-dasharray:none;stroke-dashoffset:0;stroke-opacity:1" />
      <rect
         y="662.36218"
         x="560"
         height="190"
         width="30"
         id="rect4160"
         style="opacity:1;fill:#1a1a1a;fill-opacity:1;stroke:#1a1a1a;stroke-width:4;stroke-linecap:square;stroke-linejoin:round;stroke-miterlimit:4;stroke-dasharray:none;stroke-dashoffset:0;stroke-opacity:1" />
      <path
         inkscape:connector-curvature="0"
         id="path4162"
         d="m 600,692.36221 40,-10 39.99999,160 -39.99999,10 z"
         style="fill:#1a1a1a;fill-rule:evenodd;stroke:#1a1a1a;stroke-width:4;stroke-linecap:butt;stroke-linejoin:round;stroke-miterlimit:4;stroke-dasharray:none;stroke-opacity:1" />
    </g>
    <g
       id="g4204"
       inkscape:export-xdpi="3.5999999"
       inkscape:export-ydpi="3.5999999"
       transform="translate(4380.5,-3210)">
      <path
         style="fill:#000000;fill-rule:evenodd;stroke:#ffffff;stroke-width:1;stroke-linecap:butt;stroke-linejoin:miter;stroke-miterlimit:4;stroke-dasharray:none;stroke-opacity:1"
         d="m -2040,2892.3622 0,-480 -290,0 40,-10 280,0 0,460 -10,10 40,0 0,-500 -310,0 c -10,0 -10,0 -30,10 l -40,20 c -20,10 -20,10 -20,20 l 0,470 z"
         id="path4206"
         inkscape:connector-curvature="0"
         sodipodi:nodetypes="cccccccccsssscc" />
      <path
         style="fill:#ffffff;fill-rule:evenodd;stroke:#ffffff;stroke-width:1;stroke-linecap:butt;stroke-linejoin:miter;stroke-miterlimit:4;stroke-dasharray:none;stroke-opacity:1"
         d="m -2330,2412.3622 c 0,0 13.3333,-6.6667 20,-10 20,-10 20,-10 30,-10 93.3333,0 280,0 280,0 l 0,470 -40,20 0,-470 z"
         id="path4208"
         inkscape:connector-curvature="0"
         sodipodi:nodetypes="cssccccc" />
      <path
         sodipodi:nodetypes="cccccccccsssscc"
         inkscape:connector-curvature="0"
         id="path4212"
         d="m -2040,2892.3622 0,-480 -290,0 40,-10 280,0 0,460 -10,10 40,0 0,-500 -310,0 c -10,0 -10,0 -30,10 l -40,20 c -20,10 -20,10 -20,20 l 0,470 z"
         style="fill:#000000;fill-rule:evenodd;stroke:#ffffff;stroke-width:1;stroke-linecap:butt;stroke-linejoin:miter;stroke-miterlimit:4;stroke-dasharray:none;stroke-opacity:1" />
      <path
         sodipodi:nodetypes="cssccccc"
         inkscape:connector-curvature="0"
         id="path4214"
         d="m -2330,2412.3622 c 0,0 13.3333,-6.6667 20,-10 20,-10 20,-10 30,-10 93.3333,0 280,0 280,0 l 0,470 -40,20 0,-470 z"
         style="fill:#ffffff;fill-rule:evenodd;stroke:#ffffff;stroke-width:1;stroke-linecap:butt;stroke-linejoin:miter;stroke-miterlimit:4;stroke-dasharray:none;stroke-opacity:1" />
      <path
         sodipodi:nodetypes="ccccccc"
         inkscape:connector-curvature="0"
         id="path4216"
         d="m -2340,2372.3622 20,-10 350,0 0,530 -10,10 0,-530 z"
         style="fill:#ffffff;fill-rule:evenodd;stroke:none;stroke-width:1px;stroke-linecap:butt;stroke-linejoin:miter;stroke-opacity:1" />
    </g>
    <g
       id="g4239"
       transform="translate(4280.5,-3150)"
       inkscape:export-xdpi="3.5999999"
       inkscape:export-ydpi="3.5999999">
      <path
         sodipodi:nodetypes="cccccccccsssscc"
         inkscape:connector-curvature="0"
         id="path4241"
         d="m -2040,2892.3622 0,-480 -290,0 40,-10 280,0 0,460 -10,10 40,0 0,-500 -310,0 c -10,0 -10,0 -30,10 l -40,20 c -20,10 -20,10 -20,20 l 0,470 z"
         style="fill:#000000;fill-rule:evenodd;stroke:#ffffff;stroke-width:1;stroke-linecap:butt;stroke-linejoin:miter;stroke-miterlimit:4;stroke-dasharray:none;stroke-opacity:1" />
      <path
         sodipodi:nodetypes="cssccccc"
         inkscape:connector-curvature="0"
         id="path4243"
         d="m -2330,2412.3622 c 0,0 13.3333,-6.6667 20,-10 20,-10 20,-10 30,-10 93.3333,0 280,0 280,0 l 0,470 -40,20 0,-470 z"
         style="fill:#ffffff;fill-rule:evenodd;stroke:#ffffff;stroke-width:1;stroke-linecap:butt;stroke-linejoin:miter;stroke-miterlimit:4;stroke-dasharray:none;stroke-opacity:1" />
      <path
         style="fill:#000000;fill-rule:evenodd;stroke:#ffffff;stroke-width:1;stroke-linecap:butt;stroke-linejoin:miter;stroke-miterlimit:4;stroke-dasharray:none;stroke-opacity:1"
         d="m -2040,2892.3622 0,-480 -290,0 40,-10 280,0 0,460 -10,10 40,0 0,-500 -310,0 c -10,0 -10,0 -30,10 l -40,20 c -20,10 -20,10 -20,20 l 0,470 z"
         id="path4245"
         inkscape:connector-curvature="0"
         sodipodi:nodetypes="cccccccccsssscc" />
      <path
         style="fill:#ffffff;fill-rule:evenodd;stroke:#ffffff;stroke-width:1;stroke-linecap:butt;stroke-linejoin:miter;stroke-miterlimit:4;stroke-dasharray:none;stroke-opacity:1"
         d="m -2330,2412.3622 c 0,0 13.3333,-6.6667 20,-10 20,-10 20,-10 30,-10 93.3333,0 280,0 280,0 l 0,470 -40,20 0,-470 z"
         id="path4247"
         inkscape:connector-curvature="0"
         sodipodi:nodetypes="cssccccc" />
      <path
         style="fill:#ffffff;fill-rule:evenodd;stroke:none;stroke-width:1px;stroke-linecap:butt;stroke-linejoin:miter;stroke-opacity:1"
         d="m -2340,2372.3622 20,-10 350,0 0,530 -10,10 0,-530 z"
         id="path4249"
         inkscape:connector-curvature="0"
         sodipodi:nodetypes="ccccccc" />
    </g>
    <g
       id="g4907"
       style="fill:#1a1a1a;stroke:#1a1a1a;stroke-width:4;stroke-linejoin:round;stroke-miterlimit:4;stroke-dasharray:none"
       transform="translate(-36.000219,-480.00038)">
      <path
         inkscape:export-ydpi="14.01304"
         inkscape:export-xdpi="14.01304"
         sodipodi:nodetypes="ccccc"
         inkscape:connector-curvature="0"
         id="path4153"
         d="m 919.99999,712.36221 240.00001,0 0,40 -240.00001,0 z"
         style="fill:#1a1a1a;fill-rule:evenodd;stroke:#1a1a1a;stroke-width:4;stroke-linecap:butt;stroke-linejoin:round;stroke-miterlimit:4;stroke-dasharray:none;stroke-opacity:1" />
      <path
         style="fill:#ffffff;fill-rule:evenodd;stroke:#ffffff;stroke-width:4;stroke-linecap:butt;stroke-linejoin:round;stroke-miterlimit:4;stroke-dasharray:none;stroke-opacity:1"
         d="m 980,732.36221 -40.00001,-40 30,-30 40.00001,40 40,-40 30,30 -40,40 40,40 -30,30 -40,-40 -40.00001,40 -30,-30 z"
         id="path4911"
         inkscape:connector-curvature="0"
         sodipodi:nodetypes="ccccccccccccc"
         inkscape:export-xdpi="14.01304"
         inkscape:export-ydpi="14.01304" />
      <path
         inkscape:export-ydpi="14.01304"
         inkscape:export-xdpi="14.01304"
         sodipodi:nodetypes="ccccccccccccc"
         inkscape:connector-curvature="0"
         id="path4151"
         d="m 989.99999,732.36221 -40.00001,-40 20,-20 40.00002,40 40,-40 20,20 -40,40 40,40 -20,20 -40,-40 -40.00002,40 -20,-20 z"
         style="fill:#1a1a1a;fill-rule:evenodd;stroke:#1a1a1a;stroke-width:4;stroke-linecap:butt;stroke-linejoin:round;stroke-miterlimit:4;stroke-dasharray:none;stroke-opacity:1" />
    </g>
    <path
       style="opacity:1;fill:#1a1a1a;fill-opacity:1;stroke:#1a1a1a;stroke-width:4.00000048;stroke-linecap:square;stroke-linejoin:round;stroke-miterlimit:4;stroke-dasharray:none;stroke-dashoffset:0;stroke-opacity:1"
       d="m 1540,262.36204 0,22.64258 a 80,80 0 0 0 -20.5664,8.50781 l -16.002,-16.00195 -28.2851,28.2832 16.0078,16.00781 a 80,80 0 0 0 -8.5527,20.56055 l -22.6016,0 0,40 22.6426,0 a 80,80 0 0 0 8.5078,20.5664 l -16.0039,16.00391 28.2851,28.2832 16.0079,-16.00781 A 80,80 0 0 0 1540,439.76048 l 0,22.60156 40,0 0,-22.64258 a 80,80 0 0 0 20.5664,-8.50586 l 16.002,16.00195 28.2851,-28.2832 -16.0078,-16.00781 a 80,80 0 0 0 8.5527,-20.5625 l 22.6016,0 0,-40 -22.6426,0 a 80,80 0 0 0 -8.5058,-20.56641 l 16.0019,-16.00195 -28.2851,-28.2832 -16.0059,16.00585 A 80,80 0 0 0 1580,284.9636 l 0,-22.60156 -40,0 z m 20,80 a 20,20 0 0 1 20,20 20,20 0 0 1 -20,20 20,20 0 0 1 -20,-20 20,20 0 0 1 20,-20 z"
       id="path4155"
       inkscape:export-xdpi="14.01304"
       inkscape:export-ydpi="14.01304"
       inkscape:connector-curvature="0" />
    <path
       style="opacity:1;fill:#1a1a1a;fill-opacity:1;stroke:#1a1a1a;stroke-width:4.00000048;stroke-linecap:square;stroke-linejoin:round;stroke-miterlimit:4;stroke-dasharray:none;stroke-dashoffset:0;stroke-opacity:1"
       d="m 2040.0001,252.36191 a 120.00044,120.00044 0 0 0 -120.0004,120.00044 120.00044,120.00044 0 0 0 120.0004,120.00044 120.00044,120.00044 0 0 0 84.8001,-35.20033 l -42.4,-42.40006 a 60.00022,60.00022 0 0 1 -42.4001,17.60017 60.00022,60.00022 0 0 1 -60.0002,-60.00022 60.00022,60.00022 0 0 1 60.0002,-60.00022 60.00022,60.00022 0 0 1 60.0003,60.00022 l -30.0002,0 60.0003,60.00022 60.0002,-60.00022 -30.0001,0 A 120.00044,120.00044 0 0 0 2040.0001,252.36191 Z"
       id="path4868"
       inkscape:export-xdpi="6.75"
       inkscape:export-ydpi="6.75"
       inkscape:connector-curvature="0" />
    <text
       xml:space="preserve"
       style="font-style:normal;font-variant:normal;font-weight:normal;font-stretch:normal;font-size:22.5px;line-height:125%;font-family:'DejaVu Sans';-inkscape-font-specification:'DejaVu Sans';text-align:start;letter-spacing:0px;word-spacing:0px;writing-mode:lr-tb;text-anchor:start;fill:#000000;fill-opacity:1;stroke:none;stroke-width:1px;stroke-linecap:butt;stroke-linejoin:miter;stroke-opacity:1"
       x="-1323.369"
       y="377.94788"
       id="text4921"
       sodipodi:linespacing="125%"><tspan
         sodipodi:role="line"
         id="tspan4923"
         x="-1323.369"
         y="377.94788"
         style="font-size:60px">Originals (do not resize):</tspan></text>
    <text
       sodipodi:linespacing="125%"
       id="text4925"
       y="1148.9147"
       x="-1708.2909"
       style="font-style:normal;font-variant:normal;font-weight:normal;font-stretch:normal;font-size:22.5px;line-height:125%;font-family:'DejaVu Sans';-inkscape-font-specification:'DejaVu Sans';text-align:start;letter-spacing:0px;word-spacing:0px;writing-mode:lr-tb;text-anchor:start;fill:#000000;fill-opacity:1;stroke:none;stroke-width:1px;stroke-linecap:butt;stroke-linejoin:miter;stroke-opacity:1"
       xml:space="preserve"><tspan
         style="font-size:60px"
         y="1148.9147"
         x="-1708.2909"
         id="tspan4927"
         sodipodi:role="line">Clones/duplicates resized for export:</tspan></text>
    <g
       transform="translate(-36.000219,-304.00023)"
       style="fill:#1a1a1a;stroke:#1a1a1a;stroke-width:4;stroke-linejoin:round;stroke-miterlimit:4;stroke-dasharray:none"
       id="g4945" />
    <use
       x="0"
       y="0"
       xlink:href="#g4945"
       id="use4964"
       transform="translate(78.000239,706.00061)"
       width="100%"
       height="100%" />
    <path
       style="fill:#1a1a1a;fill-rule:evenodd;stroke:#1a1a1a;stroke-width:4.00000048;stroke-linecap:butt;stroke-linejoin:round;stroke-miterlimit:4;stroke-dasharray:none;stroke-opacity:1"
       d="m 2321.9999,420.36167 0,-80.00001 120,0 0,-120 80,0 0,120 120,0 0,80.00001 -120,0 0,120 -80,0 0,-120 z"
       id="path4177"
       inkscape:connector-curvature="0" />
    <path
       inkscape:connector-curvature="0"
       id="path4178"
       d="m 2860.5787,521.78297 -56.5686,-56.56854 84.8529,-84.85282 -84.8529,-84.85281 56.5686,-56.56854 84.8528,84.85281 84.8528,-84.85281 56.5686,56.56854 -84.8529,84.85282 84.8529,84.85281 -56.5686,56.56854 -84.8528,-84.85281 z"
       style="fill:#1a1a1a;fill-rule:evenodd;stroke:#1a1a1a;stroke-width:4.00000048;stroke-linecap:butt;stroke-linejoin:round;stroke-miterlimit:4;stroke-dasharray:none;stroke-opacity:1" />
    <g
       id="g4195"
       transform="translate(-158.00006,-232.00045)"
       style="fill:#1a1a1a;stroke:#1a1a1a;stroke-width:4.00000048;stroke-linejoin:round;stroke-miterlimit:4;stroke-dasharray:none">
      <rect
         y="572.36206"
         x="3440.0002"
         height="80"
         width="320"
         id="rect4189"
         style="opacity:1;fill:#1a1a1a;fill-opacity:1;stroke:#1a1a1a;stroke-width:4.00000048;stroke-linecap:square;stroke-linejoin:round;stroke-miterlimit:4;stroke-dasharray:none;stroke-dashoffset:0;stroke-opacity:1" />
      <rect
         transform="matrix(0.70710678,-0.70710678,0.70710678,0.70710678,0,0)"
         style="opacity:1;fill:#1a1a1a;fill-opacity:1;stroke:#1a1a1a;stroke-width:4.00000048;stroke-linecap:square;stroke-linejoin:round;stroke-miterlimit:4;stroke-dasharray:none;stroke-dashoffset:0;stroke-opacity:1"
         id="rect4191"
         width="240.00002"
         height="80.000008"
         x="1971.158"
         y="2837.1685" />
      <rect
         y="-2051.1577"
         x="2837.1685"
         height="80.000008"
         width="240.00002"
         id="rect4193"
         style="opacity:1;fill:#1a1a1a;fill-opacity:1;stroke:#1a1a1a;stroke-width:4.00000048;stroke-linecap:square;stroke-linejoin:round;stroke-miterlimit:4;stroke-dasharray:none;stroke-dashoffset:0;stroke-opacity:1"
         transform="matrix(0.70710678,0.70710678,-0.70710678,0.70710678,0,0)" />
    </g>
    <g
       id="g4201"
       style="fill:#1a1a1a;stroke:#1a1a1a;stroke-width:4;stroke-linejoin:round;stroke-miterlimit:4;stroke-dasharray:none">
      <path
         style="opacity:1;fill:#1a1a1a;fill-opacity:1;stroke:#1a1a1a;stroke-width:4;stroke-linecap:square;stroke-linejoin:round;stroke-miterlimit:4;stroke-dasharray:none;stroke-dashoffset:0;stroke-opacity:1"
         d="m 4264.3317,-305.66926 0,40 70,0 -70.0016,69.99934 40,40 70.0016,-69.99934 0,70 40,0 0,-149.99934 z m -70.0016,59.99934 0,159.999998 160,0 0,-99.999998 -50,50 -60,-60 50,-50 z"
         transform="translate(-394.3312,618.03123)"
         id="rect4190"
         inkscape:connector-curvature="0"
         sodipodi:nodetypes="cccccccccccccccccc" />
    </g>
    <path
       inkscape:connector-curvature="0"
       style="color:#000000;font-style:normal;font-variant:normal;font-weight:normal;font-stretch:normal;font-size:medium;line-height:normal;font-family:sans-serif;text-indent:0;text-align:start;text-decoration:none;text-decoration-line:none;text-decoration-style:solid;text-decoration-color:#000000;letter-spacing:normal;word-spacing:normal;text-transform:none;direction:ltr;block-progression:tb;writing-mode:lr-tb;baseline-shift:baseline;text-anchor:start;white-space:normal;clip-rule:nonzero;display:inline;overflow:visible;visibility:visible;opacity:1;isolation:auto;mix-blend-mode:normal;color-interpolation:sRGB;color-interpolation-filters:linearRGB;solid-color:#000000;solid-opacity:1;fill:#1a1a1a;fill-opacity:1;fill-rule:evenodd;stroke:none;stroke-width:4;stroke-linecap:butt;stroke-linejoin:round;stroke-miterlimit:4;stroke-dasharray:none;stroke-dashoffset:0;stroke-opacity:1;color-rendering:auto;image-rendering:auto;shape-rendering:auto;text-rendering:auto;enable-background:accumulate"
       d="m 1007.9999,372.36204 c -0.5118,0 -1.0235,0.19554 -1.4141,0.58594 l -38.58592,38.58593 -38.586,-38.58593 c -0.3825,-0.38162 -0.9031,-0.59226 -1.4433,-0.58399 -0.52,0.007 -1.0167,0.21673 -1.3848,0.58399 l -20,20 c -0.782,0.78128 -0.782,2.04879 0,2.83007 l 38.586,38.58595 -38.586,38.58399 c -0.782,0.78128 -0.782,2.04879 0,2.83007 l 20,20 c 0.7811,0.78073 2.0471,0.78073 2.8281,0 l 38.586,-38.58593 38.58592,38.58593 c 0.7811,0.78079 2.047,0.78079 2.8281,0 l 20,-20 c 0.782,-0.78128 0.782,-2.04879 0,-2.83007 L 990.82798,434.364 1029.4139,395.77805 c 0.782,-0.78128 0.782,-2.04879 0,-2.83007 l -20,-20 c -0.3905,-0.3904 -0.9022,-0.58594 -1.414,-0.58594 z m -130.00002,40 c -1.1045,1.1e-4 -1.9999,0.89548 -2,2.00001 l 0,40 c 1e-4,1.10452 0.8955,1.99989 2,2 l 38,0 22,-22 -22,-22.00001 -38,0 z m 142.00002,0 -22.00002,22.00001 22.00002,22 98,0 c 1.1045,-1.1e-4 1.9999,-0.89548 2,-2 l 0,-40 c -10e-5,-1.10453 -0.8955,-1.9999 -2,-2.00001 l -98,0 z"
       id="path4947" />
    <rect
       style="opacity:1;fill:#cccccc;fill-opacity:1;stroke:none;stroke-width:4;stroke-linecap:square;stroke-linejoin:round;stroke-miterlimit:4;stroke-dasharray:none;stroke-dashoffset:0;stroke-opacity:1"
       id="rect4933"
       width="320"
       height="320"
       x="-40"
       y="972.36218" />
    <use
       x="0"
       y="0"
       xlink:href="#path4140"
       id="use4913"
       transform="matrix(1.4549508,0,0,1.4549508,61.801891,648.79204)"
       width="100%"
       height="100%" />
    <rect
       y="972.36218"
       x="440"
       height="320"
       width="320"
       id="rect4935"
       style="opacity:1;fill:#cccccc;fill-opacity:1;stroke:none;stroke-width:4;stroke-linecap:square;stroke-linejoin:round;stroke-miterlimit:4;stroke-dasharray:none;stroke-dashoffset:0;stroke-opacity:1" />
    <use
       x="0"
       y="0"
       xlink:href="#g4901"
       id="use4915"
       transform="matrix(1.0321439,0,0,1.0321439,71.270676,791.65258)"
       width="100%"
       height="100%" />
    <rect
       y="972.36218"
       x="1400"
       height="320"
       width="320"
       id="rect4941"
       style="opacity:1;fill:#cccccc;fill-opacity:1;stroke:none;stroke-width:4;stroke-linecap:square;stroke-linejoin:round;stroke-miterlimit:4;stroke-dasharray:none;stroke-dashoffset:0;stroke-opacity:1" />
    <use
       x="0"
       y="0"
       xlink:href="#path4155"
       id="use4919"
       transform="matrix(1.0784314,0,0,1.0784314,-122.35296,741.5796)"
       width="100%"
       height="100%" />
    <rect
       style="opacity:1;fill:#cccccc;fill-opacity:1;stroke:none;stroke-width:4;stroke-linecap:square;stroke-linejoin:round;stroke-miterlimit:4;stroke-dasharray:none;stroke-dashoffset:0;stroke-opacity:1"
       id="rect4943"
       width="320"
       height="320"
       x="1880"
       y="972.36218" />
    <use
       x="0"
       y="0"
       xlink:href="#path4868"
       id="use4242"
       transform="matrix(0.82625076,0,0,0.82625076,355.25132,825.50035)"
       width="100%"
       height="100%" />
    <rect
       y="972.36206"
       x="2360"
       height="320"
       width="320"
       id="rect4181"
       style="opacity:1;fill:#cccccc;fill-opacity:1;stroke:none;stroke-width:4;stroke-linecap:square;stroke-linejoin:round;stroke-miterlimit:4;stroke-dasharray:none;stroke-dashoffset:0;stroke-opacity:1" />
    <use
       height="100%"
       width="100%"
       transform="matrix(0.74074079,0,0,0.74074075,681.48161,850.61256)"
       id="use4282"
       xlink:href="#path4177"
       y="0"
       x="0" />
    <rect
       style="opacity:1;fill:#cccccc;fill-opacity:1;stroke:none;stroke-width:4;stroke-linecap:square;stroke-linejoin:round;stroke-miterlimit:4;stroke-dasharray:none;stroke-dashoffset:0;stroke-opacity:1"
       id="rect4180"
       width="320"
       height="320"
       x="2840"
       y="972.362" />
    <use
       height="100%"
       width="100%"
       transform="matrix(0.83669573,0,0,0.83669601,535.57022,814.1149)"
       id="use4284"
       xlink:href="#path4178"
       y="0"
       x="0" />
    <rect
       y="972.36194"
       x="3320.0002"
       height="320"
       width="320"
       id="rect4208"
       style="opacity:1;fill:#cccccc;fill-opacity:1;stroke:none;stroke-width:4;stroke-linecap:square;stroke-linejoin:round;stroke-miterlimit:4;stroke-dasharray:none;stroke-dashoffset:0;stroke-opacity:1" />
    <use
       x="0"
       y="0"
       xlink:href="#g4195"
       id="use4248"
       transform="matrix(0.65934061,0,0,0.65934061,1223.7368,881.57426)"
       width="100%"
       height="100%" />
    <rect
       style="opacity:1;fill:#cccccc;fill-opacity:1;stroke:none;stroke-width:4;stroke-linecap:square;stroke-linejoin:round;stroke-miterlimit:4;stroke-dasharray:none;stroke-dashoffset:0;stroke-opacity:1"
       id="rect4213"
       width="320"
       height="320"
       x="3800"
       y="972.362" />
    <use
       height="100%"
       width="100%"
       transform="matrix(0.8928509,0,0,0.8928599,468.95377,755.2523)"
       id="use4288"
       xlink:href="#g4201"
       y="0"
       x="0" />
    <rect
       style="opacity:1;fill:#cccccc;fill-opacity:1;stroke:none;stroke-width:4;stroke-linecap:square;stroke-linejoin:round;stroke-miterlimit:4;stroke-dasharray:none;stroke-dashoffset:0;stroke-opacity:1"
       id="rect4937"
       width="320"
       height="320"
       x="920"
       y="972.36206" />
    <use
       x="0"
       y="0"
       xlink:href="#path4947"
       id="use4272"
       transform="matrix(0.9836067,0,0,0.9836067,98.360494,705.11986)"
       width="100%"
       height="100%" />
    <g
       id="g4881"
       transform="translate(-299.99995,19.999996)">
      <ellipse
         style="opacity:1;fill:#1a1a1a;fill-opacity:1;stroke:none;stroke-width:6;stroke-linecap:square;stroke-linejoin:round;stroke-miterlimit:4;stroke-dasharray:none;stroke-dashoffset:0;stroke-opacity:1"
         id="path4202"
         cx="4580"
         cy="392.36197"
         rx="100.00002"
         ry="100" />
      <ellipse
         style="opacity:1;fill:#ffffff;fill-opacity:1;stroke:none;stroke-width:6;stroke-linecap:square;stroke-linejoin:round;stroke-miterlimit:4;stroke-dasharray:none;stroke-dashoffset:0;stroke-opacity:1"
         id="path4204"
         cx="4580"
         cy="392.36197"
         rx="60.000027"
         ry="60" />
      <rect
         style="opacity:1;fill:#ffffff;fill-opacity:1;stroke:none;stroke-width:6;stroke-linecap:square;stroke-linejoin:round;stroke-miterlimit:4;stroke-dasharray:none;stroke-dashoffset:0;stroke-opacity:1"
         id="rect4226"
         width="79.999901"
         height="70.000008"
         x="4540"
         y="282.36197" />
      <rect
         style="opacity:1;fill:#1a1a1a;fill-opacity:1;stroke:none;stroke-width:6;stroke-linecap:square;stroke-linejoin:round;stroke-miterlimit:4;stroke-dasharray:none;stroke-dashoffset:0;stroke-opacity:1"
         id="rect4224"
         width="40"
         height="140"
         x="4560"
         y="252.36197" />
    </g>
    <rect
       y="972.36206"
       x="4280"
       height="320"
       width="320"
       id="rect4878"
       style="opacity:1;fill:#cccccc;fill-opacity:1;stroke:none;stroke-width:4;stroke-linecap:square;stroke-linejoin:round;stroke-miterlimit:4;stroke-dasharray:none;stroke-dashoffset:0;stroke-opacity:1" />
    <rect
       style="opacity:1;fill:#cccccc;fill-opacity:1;stroke:none;stroke-width:4;stroke-linecap:square;stroke-linejoin:round;stroke-miterlimit:4;stroke-dasharray:none;stroke-dashoffset:0;stroke-opacity:1"
       id="rect4940"
       width="320"
       height="320"
       x="4280"
       y="972.36206" />
    <rect
       y="972.362"
       x="4760"
       height="320"
       width="320"
       id="rect4198"
       style="opacity:1;fill:#cccccc;fill-opacity:1;stroke:none;stroke-width:4;stroke-linecap:square;stroke-linejoin:round;stroke-miterlimit:4;stroke-dasharray:none;stroke-dashoffset:0;stroke-opacity:1" />
    <g
       transform="translate(-139.99972,760.00071)"
       id="g4230"
       style="fill:#1a1a1a">
      <path
         style="opacity:1;fill:#1a1a1a;fill-opacity:1;stroke:none;stroke-width:6;stroke-linecap:square;stroke-linejoin:round;stroke-miterlimit:4;stroke-dasharray:none;stroke-dashoffset:0;stroke-opacity:1"
         d="m 4934.3301,-257.26367 a 100.00002,100 0 0 0 -60,91.59375 100.00002,100 0 0 0 100,99.999998 100.00002,100 0 0 0 100,-99.999998 100.00002,100 0 0 0 -60,-91.51953 l 0,46.88476 a 60.000027,60 0 0 1 20,44.63477 60.000027,60 0 0 1 -60,60 60.000027,60 0 0 1 -60,-60 60.000027,60 0 0 1 20,-44.625 l 0,-46.96875 z"
         id="ellipse4232"
         transform="translate(-394.33033,558.03119)"
         inkscape:connector-curvature="0" />
      <rect
         y="252.36197"
         x="4560"
         height="140"
         width="40"
         id="rect4238"
         style="opacity:1;fill:#1a1a1a;fill-opacity:1;stroke:none;stroke-width:6;stroke-linecap:square;stroke-linejoin:round;stroke-miterlimit:4;stroke-dasharray:none;stroke-dashoffset:0;stroke-opacity:1" />
    </g>
    <path
       inkscape:connector-curvature="0"
       id="path4262"
       d="m 4698.2853,272.36196 0,20.07617 c -50,0 -50,0 -100,51.63867 -59.9998,-51.71415 -60,-51.71484 -120,-51.71484 l 0,40 c 50,0 50.0002,6.9e-4 91.7148,40 -41.7146,40.0007 -41.7148,40 -91.7148,40 l 0,40 c 70,0 70.0002,7e-4 120,-51.71485 50,51.79102 50,51.79102 100,51.64063 l 0,20.07422 40,-40 -40,-40 0,19.83008 c -30,0.24609 -30,0.24609 -71.7149,-39.83008 41.7149,-39.92383 41.7149,-39.92383 71.7149,-39.83008 l 0,19.83008 20,-20 20,-20 -20,-20 z"
       style="opacity:1;fill:#1a1a1a;fill-opacity:1;stroke:none;stroke-width:6;stroke-linecap:square;stroke-linejoin:round;stroke-miterlimit:4;stroke-dasharray:none;stroke-dashoffset:0;stroke-opacity:1"
       sodipodi:nodetypes="ccccccccccccccccccccc" />
    <rect
       style="opacity:1;fill:#ffffff;fill-opacity:1;stroke:none;stroke-width:6;stroke-linecap:square;stroke-linejoin:round;stroke-miterlimit:4;stroke-dasharray:none;stroke-dashoffset:0;stroke-opacity:1"
       id="rect4268"
       width="60"
       height="10"
       x="3478.2102"
       y="-3018.1794"
       transform="matrix(0.70710678,0.70710678,-0.70710678,0.70710678,0,0)" />
    <rect
       transform="matrix(0.70710678,0.70710678,-0.70710678,0.70710678,0,0)"
       y="-2968.1785"
       x="3477.2041"
       height="10"
       width="60"
       id="rect4270"
       style="opacity:1;fill:#ffffff;fill-opacity:1;stroke:none;stroke-width:6;stroke-linecap:square;stroke-linejoin:round;stroke-miterlimit:4;stroke-dasharray:none;stroke-dashoffset:0;stroke-opacity:1" />
    <path
       sodipodi:nodetypes="ccccccccccccccccccccc"
       style="opacity:1;fill:#1a1a1a;fill-opacity:1;stroke:none;stroke-width:6;stroke-linecap:square;stroke-linejoin:round;stroke-miterlimit:4;stroke-dasharray:none;stroke-dashoffset:0;stroke-opacity:1"
       d="m 4698.2853,272.36196 0,20.07617 c -50,0 -50,0 -100,51.63867 -59.9998,-51.71415 -60,-51.71484 -120,-51.71484 l 0,40 c 50,0 50.0002,6.9e-4 91.7148,40 -41.7146,40.0007 -41.7148,40 -91.7148,40 l 0,40 c 70,0 70.0002,7e-4 120,-51.71485 50,51.79102 50,51.79102 100,51.64063 l 0,20.07422 40,-40 -40,-40 0,19.83008 c -30,0.24609 -30,0.24609 -71.7149,-39.83008 41.7149,-39.92383 41.7149,-39.92383 71.7149,-39.83008 l 0,19.83008 20,-20 20,-20 -20,-20 z"
       id="path4273"
       inkscape:connector-curvature="0" />
    <path
       inkscape:connector-curvature="0"
       id="path4292"
       d="m 5003.077,1040.0543 0,18.5318 c -46.1538,0 -46.1538,0 -92.3077,47.6665 -55.3844,-47.7361 -55.3846,-47.7367 -110.7692,-47.7367 l 0,36.923 c 46.1539,0 46.1541,7e-4 84.6598,36.9231 -38.5057,36.9237 -38.5059,36.9231 -84.6598,36.9231 l 0,36.923 c 64.6154,0 64.6156,7e-4 110.7692,-47.7368 46.1539,47.8071 46.1539,47.8071 92.3077,47.6683 l 0,18.5301 36.9231,-36.9231 -36.9231,-36.9231 0,18.3047 c -27.6923,0.2271 -27.6923,0.2271 -66.1984,-36.7662 38.5061,-36.8528 38.5061,-36.8528 66.1984,-36.7662 l 0,18.3047 18.4615,-18.4616 18.4616,-18.4615 -18.4616,-18.4615 z"
       style="opacity:1;fill:#1a1a1a;fill-opacity:1;stroke:none;stroke-width:6;stroke-linecap:square;stroke-linejoin:round;stroke-miterlimit:4;stroke-dasharray:none;stroke-dashoffset:0;stroke-opacity:1"
       sodipodi:nodetypes="ccccccccccccccccccccc" />
  </g>
</svg>
