<?xml version="1.0" encoding="UTF-8" standalone="no"?>
<!-- Created with Inkscape (http://www.inkscape.org/) -->

<svg
   xmlns:dc="http://purl.org/dc/elements/1.1/"
   xmlns:cc="http://creativecommons.org/ns#"
   xmlns:rdf="http://www.w3.org/1999/02/22-rdf-syntax-ns#"
   xmlns:svg="http://www.w3.org/2000/svg"
   xmlns="http://www.w3.org/2000/svg"
   xmlns:xlink="http://www.w3.org/1999/xlink"
   xmlns:sodipodi="http://sodipodi.sourceforge.net/DTD/sodipodi-0.dtd"
   xmlns:inkscape="http://www.inkscape.org/namespaces/inkscape"
   width="6.7744555mm"
   height="6.7744579mm"
   viewBox="0 0 24.003975 24.003984"
   id="svg4321"
   version="1.1"
   inkscape:version="0.91 r13725"
   sodipodi:docname="popout.svg">
  <defs
     id="defs4323" />
  <sodipodi:namedview
     id="base"
     pagecolor="#ffffff"
     bordercolor="#666666"
     borderopacity="1.0"
     inkscape:pageopacity="0.0"
     inkscape:pageshadow="2"
     inkscape:zoom="15.839192"
     inkscape:cx="1.3370924"
     inkscape:cy="13.443547"
     inkscape:document-units="px"
     inkscape:current-layer="layer1"
     showgrid="false"
     fit-margin-top="0"
     fit-margin-left="0"
     fit-margin-right="0"
     fit-margin-bottom="0"
     inkscape:window-width="1920"
     inkscape:window-height="1048"
     inkscape:window-x="0"
     inkscape:window-y="14"
     inkscape:window-maximized="0" />
  <metadata
     id="metadata4326">
    <rdf:RDF>
      <cc:Work
         rdf:about="">
        <dc:format>image/svg+xml</dc:format>
        <dc:type
           rdf:resource="http://purl.org/dc/dcmitype/StillImage" />
        <dc:title></dc:title>
      </cc:Work>
    </rdf:RDF>
  </metadata>
  <g
     inkscape:label="Layer 1"
     inkscape:groupmode="layer"
     id="layer1"
     transform="translate(-370.16306,-503.2081)">
    <use
       height="100%"
       width="100%"
       transform="matrix(0.14551919,0,0,0.14551919,363.51625,464.63895)"
       id="use4236"
       xlink:href="#path4140"
       y="0"
       x="0" />
    <use
       height="100%"
       width="100%"
       transform="matrix(0.09837698,0,0,0.09837698,314.58324,477.94771)"
       id="use4243"
       xlink:href="#g4901"
       y="0"
       x="0" />
    <use
       height="100%"
       width="100%"
       transform="matrix(0.09837688,0,0,0.09837688,273.85886,476.98179)"
       id="use4283"
       xlink:href="#path4947"
       y="0"
       x="0" />
    <use
       height="100%"
       width="100%"
       transform="matrix(0.10786101,0,0,0.10786101,209.19899,477.91994)"
       id="use4249"
       xlink:href="#path4155"
       y="0"
       x="0" />
    <use
       height="100%"
       width="100%"
       transform="matrix(0.0804945,0,0,0.0804945,210.2073,486.62373)"
       id="use4255"
       xlink:href="#path4868"
       y="0"
       x="0" />
    <use
       height="100%"
       width="100%"
       transform="matrix(0.07408635,0,0,0.07408635,196.28177,486.75869)"
       id="use4261"
       xlink:href="#path4177"
       y="0"
       x="0" />
    <use
       height="100%"
       width="100%"
       transform="matrix(0.08368339,0,0,0.08368339,133.6108,482.92535)"
       id="use4267"
       xlink:href="#path4178"
       y="0"
       x="0" />
    <use
       height="100%"
       width="100%"
       transform="matrix(0.06594492,0,0,0.06594492,152.21485,489.6789)"
       id="use4273"
       xlink:href="#g4195"
       y="0"
       x="0" />
    <g
       style="fill:#1a1a1a;stroke:#1a1a1a;stroke-width:4.00000048;stroke-linejoin:round;stroke-miterlimit:4;stroke-dasharray:none"
       id="use4279"
       transform="matrix(0.08929989,0,0,0.08930079,33.002557,477.49296)">
      <path
         sodipodi:nodetypes="cccccccccccccccccc"
         inkscape:connector-curvature="0"
         id="path4289"
         transform="translate(-394.3312,618.03123)"
         d="m 4264.3317,-305.66926 0,40 70,0 -70.0016,69.99934 40,40 70.0016,-69.99934 0,70 40,0 0,-149.99934 z m -70.0016,59.99934 0,159.999998 160,0 0,-99.999998 -50,50 -60,-60 50,-50 z"
         style="opacity:1;fill:#1a1a1a;fill-opacity:1;stroke:#1a1a1a;stroke-width:4.00000048;stroke-linecap:square;stroke-linejoin:round;stroke-miterlimit:4;stroke-dasharray:none;stroke-dashoffset:0;stroke-opacity:1" />
    </g>
  </g>
</svg>
