<?xml version="1.0" encoding="UTF-8" standalone="no"?>
<!-- Created with Inkscape (http://www.inkscape.org/) -->

<svg
   xmlns:dc="http://purl.org/dc/elements/1.1/"
   xmlns:cc="http://creativecommons.org/ns#"
   xmlns:rdf="http://www.w3.org/1999/02/22-rdf-syntax-ns#"
   xmlns:svg="http://www.w3.org/2000/svg"
   xmlns="http://www.w3.org/2000/svg"
   xmlns:sodipodi="http://sodipodi.sourceforge.net/DTD/sodipodi-0.dtd"
   xmlns:inkscape="http://www.inkscape.org/namespaces/inkscape"
   width="24"
   height="24"
   viewBox="0 0 23.999999 23.999999"
   id="svg5612"
   version="1.1"
   inkscape:version="0.91 r13725"
   sodipodi:docname="prefs.svg">
  <defs
     id="defs5614" />
  <sodipodi:namedview
     id="base"
     pagecolor="#ffffff"
     bordercolor="#666666"
     borderopacity="1.0"
     inkscape:pageopacity="0.0"
     inkscape:pageshadow="2"
     inkscape:zoom="11.2"
     inkscape:cx="14.381283"
     inkscape:cy="4.0356594"
     inkscape:document-units="px"
     inkscape:current-layer="layer1"
     showgrid="false"
     fit-margin-top="0"
     fit-margin-left="0"
     fit-margin-right="0"
     fit-margin-bottom="0"
     inkscape:window-width="1920"
     inkscape:window-height="1048"
     inkscape:window-x="0"
     inkscape:window-y="14"
     inkscape:window-maximized="0"
     units="px" />
  <metadata
     id="metadata5617">
    <rdf:RDF>
      <cc:Work
         rdf:about="">
        <dc:format>image/svg+xml</dc:format>
        <dc:type
           rdf:resource="http://purl.org/dc/dcmitype/StillImage" />
        <dc:title></dc:title>
      </cc:Work>
    </rdf:RDF>
  </metadata>
  <g
     inkscape:label="Layer 1"
     inkscape:groupmode="layer"
     id="layer1"
     transform="translate(-192.19525,-636.26636)">
    <path
       inkscape:connector-curvature="0"
       inkscape:export-ydpi="14.01304"
       inkscape:export-xdpi="14.01304"
       id="use5546"
       d="m 202.03836,637.48206 0,2.4418 a 8.6274507,8.6274507 0 0 0 -2.2179,0.9175 l -1.7257,-1.7257 -3.0504,3.0502 1.7264,1.7263 a 8.6274507,8.6274507 0 0 0 -0.9224,2.2173 l -2.4374,0 0,4.3138 2.4418,0 a 8.6274507,8.6274507 0 0 0 0.9175,2.2179 l -1.7259,1.7259 3.0504,3.0502 1.7263,-1.7264 a 8.6274507,8.6274507 0 0 0 2.2173,0.9224 l 0,2.4374 4.3138,0 0,-2.4418 a 8.6274507,8.6274507 0 0 0 2.2179,-0.9173 l 1.7257,1.7257 3.0504,-3.0502 -1.7264,-1.7263 a 8.6274507,8.6274507 0 0 0 0.9224,-2.2175 l 2.4374,0 0,-4.3138 -2.4418,0 a 8.6274507,8.6274507 0 0 0 -0.9173,-2.2179 l 1.7257,-1.7257 -3.0504,-3.0502 -1.7261,1.7262 a 8.6274507,8.6274507 0 0 0 -2.2175,-0.9224 l 0,-2.4374 -4.3138,0 z m 2.1569,8.6274 a 2.1568627,2.1568627 0 0 1 2.1569,2.1569 2.1568627,2.1568627 0 0 1 -2.1569,2.1569 2.1568627,2.1568627 0 0 1 -2.1569,-2.1569 2.1568627,2.1568627 0 0 1 2.1569,-2.1569 z"
       style="opacity:1;fill:#1a1a1a;fill-opacity:1;stroke:#1a1a1a;stroke-width:0.43137252;stroke-linecap:square;stroke-linejoin:round;stroke-miterlimit:4;stroke-dasharray:none;stroke-dashoffset:0;stroke-opacity:1" />
  </g>
</svg>
