<?xml version="1.0" encoding="UTF-8" standalone="no"?>
<!-- Created with Inkscape (http://www.inkscape.org/) -->

<svg
   xmlns:dc="http://purl.org/dc/elements/1.1/"
   xmlns:cc="http://creativecommons.org/ns#"
   xmlns:rdf="http://www.w3.org/1999/02/22-rdf-syntax-ns#"
   xmlns:svg="http://www.w3.org/2000/svg"
   xmlns="http://www.w3.org/2000/svg"
   xmlns:sodipodi="http://sodipodi.sourceforge.net/DTD/sodipodi-0.dtd"
   xmlns:inkscape="http://www.inkscape.org/namespaces/inkscape"
   width="6.7733335mm"
   height="6.7733335mm"
   viewBox="0 0 24.000001 24.000001"
   id="svg4246"
   version="1.1"
   inkscape:version="0.91 r13725"
   sodipodi:docname="quit.svg">
  <defs
     id="defs4248" />
  <sodipodi:namedview
     id="base"
     pagecolor="#ffffff"
     bordercolor="#666666"
     borderopacity="1.0"
     inkscape:pageopacity="0.0"
     inkscape:pageshadow="2"
     inkscape:zoom="15.031247"
     inkscape:cx="0.87265357"
     inkscape:cy="6.1981058"
     inkscape:document-units="px"
     inkscape:current-layer="layer1"
     showgrid="false"
     fit-margin-top="0"
     fit-margin-left="0"
     fit-margin-right="0"
     fit-margin-bottom="0"
     inkscape:window-width="1920"
     inkscape:window-height="1048"
     inkscape:window-x="0"
     inkscape:window-y="14"
     inkscape:window-maximized="0" />
  <metadata
     id="metadata4251">
    <rdf:RDF>
      <cc:Work
         rdf:about="">
        <dc:format>image/svg+xml</dc:format>
        <dc:type
           rdf:resource="http://purl.org/dc/dcmitype/StillImage" />
        <dc:title></dc:title>
      </cc:Work>
    </rdf:RDF>
  </metadata>
  <g
     inkscape:label="Layer 1"
     inkscape:groupmode="layer"
     id="layer1"
     transform="translate(-414.59488,-562.4071)">
    <g
       id="use4946"
       transform="matrix(0.0819672,0,0,0.08196747,75.775271,540.60682)">
      <path
         style="opacity:1;fill:#1a1a1a;fill-opacity:1;stroke:#1a1a1a;stroke-width:4;stroke-linecap:square;stroke-linejoin:round;stroke-miterlimit:4;stroke-dasharray:none;stroke-dashoffset:0;stroke-opacity:1"
         d="m 4624.3301,-314.61719 a 120.00001,120.00001 0 0 0 -70,108.94727 120.00001,120.00001 0 0 0 120,119.999998 120.00001,120.00001 0 0 0 120,-119.999998 120.00001,120.00001 0 0 0 -70,-108.92774 l 0,75.82618 a 60.000004,60.000004 0 0 1 10,33.10156 60.000004,60.000004 0 0 1 -60,60 60.000004,60.000004 0 0 1 -60,-60 60.000004,60.000004 0 0 1 10,-33.09766 l 0,-75.84961 z"
         transform="translate(-394.33028,618.03119)"
         id="path4950"
         inkscape:connector-curvature="0" />
      <rect
         y="292.36197"
         x="4250"
         height="119.99997"
         width="59.99987"
         id="rect4952"
         style="opacity:1;fill:#1a1a1a;fill-opacity:1;stroke:#1a1a1a;stroke-width:4;stroke-linecap:square;stroke-linejoin:round;stroke-miterlimit:4;stroke-dasharray:none;stroke-dashoffset:0;stroke-opacity:1" />
    </g>
  </g>
</svg>
