<?xml version="1.0" encoding="UTF-8" standalone="no"?>
<!-- Created with Inkscape (http://www.inkscape.org/) -->

<svg
   xmlns:dc="http://purl.org/dc/elements/1.1/"
   xmlns:cc="http://creativecommons.org/ns#"
   xmlns:rdf="http://www.w3.org/1999/02/22-rdf-syntax-ns#"
   xmlns:svg="http://www.w3.org/2000/svg"
   xmlns="http://www.w3.org/2000/svg"
   xmlns:sodipodi="http://sodipodi.sourceforge.net/DTD/sodipodi-0.dtd"
   xmlns:inkscape="http://www.inkscape.org/namespaces/inkscape"
   width="24.50004"
   height="23.999943"
   viewBox="0 0 24.500039 23.999942"
   id="svg5612"
   version="1.1"
   inkscape:version="0.91 r13725"
   sodipodi:docname="refresh.svg">
  <defs
     id="defs5614" />
  <sodipodi:namedview
     id="base"
     pagecolor="#ffffff"
     bordercolor="#666666"
     borderopacity="1.0"
     inkscape:pageopacity="0.0"
     inkscape:pageshadow="2"
     inkscape:zoom="11.2"
     inkscape:cx="13.05987"
     inkscape:cy="5.2320728"
     inkscape:document-units="px"
     inkscape:current-layer="layer1"
     showgrid="false"
     fit-margin-top="0"
     fit-margin-left="0"
     fit-margin-right="0"
     fit-margin-bottom="0"
     inkscape:window-width="1920"
     inkscape:window-height="1048"
     inkscape:window-x="0"
     inkscape:window-y="14"
     inkscape:window-maximized="0"
     units="px" />
  <metadata
     id="metadata5617">
    <rdf:RDF>
      <cc:Work
         rdf:about="">
        <dc:format>image/svg+xml</dc:format>
        <dc:type
           rdf:resource="http://purl.org/dc/dcmitype/StillImage" />
        <dc:title></dc:title>
      </cc:Work>
    </rdf:RDF>
  </metadata>
  <g
     inkscape:label="Layer 1"
     inkscape:groupmode="layer"
     id="layer1"
     transform="translate(-193.51666,-637.46283)">
    <path
       sodipodi:nodetypes="ssccccsscccccs"
       style="opacity:1;fill:#1a1a1a;fill-opacity:1;stroke:none;stroke-width:10;stroke-linecap:square;stroke-linejoin:round;stroke-miterlimit:4;stroke-dasharray:none;stroke-dashoffset:0;stroke-opacity:1"
       d="m 205.5167,639.46274 c -5.52289,0 -9.99999,4.4772 -9.99999,10 0,5.52289 4.4771,10.00009 9.99999,10.00009 2.6512,0 5.1931,-1.0575 7.0666,-2.9334 l -3.5333,-3.53329 c -0.9368,0.9379 -2.2077,1.46549 -3.5333,1.46659 -2.7615,0 -5,-2.23849 -5,-4.99999 0,-2.7614 2.2385,-5 5,-5 2.7614,0 5,2.2386 5,5 l -2.5,0 5,4.99999 5,-4.99999 -2.5,0 c 0,-5.5228 -4.4772,-10 -10,-10 z"
       id="path5548"
       inkscape:export-xdpi="6.75"
       inkscape:export-ydpi="6.75"
       inkscape:connector-curvature="0" />
  </g>
</svg>
