<?xml version="1.0" encoding="UTF-8" standalone="no"?>
<!-- Created with Inkscape (http://www.inkscape.org/) -->

<svg
   xmlns:dc="http://purl.org/dc/elements/1.1/"
   xmlns:cc="http://creativecommons.org/ns#"
   xmlns:rdf="http://www.w3.org/1999/02/22-rdf-syntax-ns#"
   xmlns:svg="http://www.w3.org/2000/svg"
   xmlns="http://www.w3.org/2000/svg"
   xmlns:xlink="http://www.w3.org/1999/xlink"
   xmlns:sodipodi="http://sodipodi.sourceforge.net/DTD/sodipodi-0.dtd"
   xmlns:inkscape="http://www.inkscape.org/namespaces/inkscape"
   width="6.7744493mm"
   height="6.7744513mm"
   viewBox="0 0 24.003954 24.003961"
   id="svg4321"
   version="1.1"
   inkscape:version="0.91 r13725"
   sodipodi:docname="removebar.svg">
  <defs
     id="defs4323" />
  <sodipodi:namedview
     id="base"
     pagecolor="#ffffff"
     bordercolor="#666666"
     borderopacity="1.0"
     inkscape:pageopacity="0.0"
     inkscape:pageshadow="2"
     inkscape:zoom="15.839192"
     inkscape:cx="11.463133"
     inkscape:cy="17.946373"
     inkscape:document-units="px"
     inkscape:current-layer="layer1"
     showgrid="false"
     fit-margin-top="0"
     fit-margin-left="0"
     fit-margin-right="0"
     fit-margin-bottom="0"
     inkscape:window-width="1920"
     inkscape:window-height="1048"
     inkscape:window-x="0"
     inkscape:window-y="14"
     inkscape:window-maximized="0" />
  <metadata
     id="metadata4326">
    <rdf:RDF>
      <cc:Work
         rdf:about="">
        <dc:format>image/svg+xml</dc:format>
        <dc:type
           rdf:resource="http://purl.org/dc/dcmitype/StillImage" />
        <dc:title></dc:title>
      </cc:Work>
    </rdf:RDF>
  </metadata>
  <g
     inkscape:label="Layer 1"
     inkscape:groupmode="layer"
     id="layer1"
     transform="translate(-360.03702,-507.71094)">
    <use
       height="100%"
       width="100%"
       transform="matrix(0.14551919,0,0,0.14551919,363.51625,464.63895)"
       id="use4236"
       xlink:href="#path4140"
       y="0"
       x="0" />
    <use
       height="100%"
       width="100%"
       transform="matrix(0.09837698,0,0,0.09837698,314.58324,477.94771)"
       id="use4243"
       xlink:href="#g4901"
       y="0"
       x="0" />
    <use
       height="100%"
       width="100%"
       transform="matrix(0.09837688,0,0,0.09837688,273.85886,476.98179)"
       id="use4283"
       xlink:href="#path4947"
       y="0"
       x="0" />
    <path
       id="use4285"
       d="m 373.02277,513.61356 c -0.05,0 -0.1007,0.019 -0.1392,0.058 l -3.7959,3.796 -3.796,-3.796 c -0.038,-0.037 -0.089,-0.058 -0.142,-0.057 -0.051,0 -0.1,0.021 -0.1362,0.057 l -1.9675,1.9676 c -0.077,0.077 -0.077,0.2015 0,0.2784 l 3.7959,3.7959 -3.7959,3.7958 c -0.077,0.077 -0.077,0.2016 0,0.2784 l 1.9675,1.9676 c 0.077,0.077 0.2014,0.077 0.2782,0 l 3.796,-3.796 3.7959,3.796 c 0.077,0.077 0.2014,0.077 0.2783,0 l 1.9675,-1.9676 c 0.077,-0.077 0.077,-0.2015 0,-0.2784 l -3.796,-3.7958 3.796,-3.7959 c 0.077,-0.077 0.077,-0.2016 0,-0.2784 l -1.9675,-1.9676 c -0.039,-0.038 -0.089,-0.058 -0.1391,-0.058 z m -12.789,3.9351 c -0.1087,0 -0.1968,0.088 -0.1968,0.1967 l 0,3.9351 c 0,0.1086 0.088,0.1967 0.1968,0.1967 l 3.7383,0 2.1643,-2.1643 -2.1643,-2.1642 -3.7383,0 z m 13.9695,0 -2.1643,2.1642 2.1643,2.1643 9.6409,0 c 0.1087,0 0.1968,-0.088 0.1968,-0.1967 l 0,-3.9351 c 0,-0.1087 -0.088,-0.1967 -0.1968,-0.1967 l -9.6409,0 z"
       style="color:#000000;font-style:normal;font-variant:normal;font-weight:normal;font-stretch:normal;font-size:medium;line-height:normal;font-family:sans-serif;text-indent:0;text-align:start;text-decoration:none;text-decoration-line:none;text-decoration-style:solid;text-decoration-color:#000000;letter-spacing:normal;word-spacing:normal;text-transform:none;direction:ltr;block-progression:tb;writing-mode:lr-tb;baseline-shift:baseline;text-anchor:start;white-space:normal;clip-rule:nonzero;display:inline;overflow:visible;visibility:visible;opacity:1;isolation:auto;mix-blend-mode:normal;color-interpolation:sRGB;color-interpolation-filters:linearRGB;solid-color:#000000;solid-opacity:1;fill:#1a1a1a;fill-opacity:1;fill-rule:evenodd;stroke:none;stroke-width:4;stroke-linecap:butt;stroke-linejoin:round;stroke-miterlimit:4;stroke-dasharray:none;stroke-dashoffset:0;stroke-opacity:1;color-rendering:auto;image-rendering:auto;shape-rendering:auto;text-rendering:auto;enable-background:accumulate"
       inkscape:connector-curvature="0" />
  </g>
</svg>
