<?xml version="1.0" encoding="UTF-8" standalone="no"?>
<!-- Created with Inkscape (http://www.inkscape.org/) -->

<svg
   xmlns:dc="http://purl.org/dc/elements/1.1/"
   xmlns:cc="http://creativecommons.org/ns#"
   xmlns:rdf="http://www.w3.org/1999/02/22-rdf-syntax-ns#"
   xmlns:svg="http://www.w3.org/2000/svg"
   xmlns="http://www.w3.org/2000/svg"
   xmlns:sodipodi="http://sodipodi.sourceforge.net/DTD/sodipodi-0.dtd"
   xmlns:inkscape="http://www.inkscape.org/namespaces/inkscape"
   width="24.4"
   height="24.000002"
   viewBox="0 0 24.399999 24.000001"
   id="svg5612"
   version="1.1"
   inkscape:version="0.91 r13725"
   sodipodi:docname="removebar.svg">
  <defs
     id="defs5614" />
  <sodipodi:namedview
     id="base"
     pagecolor="#ffffff"
     bordercolor="#666666"
     borderopacity="1.0"
     inkscape:pageopacity="0.0"
     inkscape:pageshadow="2"
     inkscape:zoom="11.2"
     inkscape:cx="27.470574"
     inkscape:cy="19.357074"
     inkscape:document-units="px"
     inkscape:current-layer="layer1"
     showgrid="false"
     fit-margin-top="0"
     fit-margin-left="0"
     fit-margin-right="0"
     fit-margin-bottom="0"
     inkscape:window-width="1920"
     inkscape:window-height="1048"
     inkscape:window-x="0"
     inkscape:window-y="14"
     inkscape:window-maximized="0"
     units="px" />
  <metadata
     id="metadata5617">
    <rdf:RDF>
      <cc:Work
         rdf:about="">
        <dc:format>image/svg+xml</dc:format>
        <dc:type
           rdf:resource="http://purl.org/dc/dcmitype/StillImage" />
        <dc:title></dc:title>
      </cc:Work>
    </rdf:RDF>
  </metadata>
  <g
     inkscape:label="Layer 1"
     inkscape:groupmode="layer"
     id="layer1"
     transform="translate(-179.10596,-651.58777)">
    <g
       id="use5550"
       style="fill:#1a1a1a;stroke:#1a1a1a;stroke-width:4;stroke-linejoin:round;stroke-miterlimit:4;stroke-dasharray:none"
       transform="matrix(0.1,0,0,0.1,87.305959,590.55161)">
      <path
         id="path5566"
         transform="translate(-2.0000029,71.999916)"
         d="m 922,638.36133 c -1.10452,1.1e-4 -1.99989,0.89548 -2,2 l 0,40 c 1.1e-4,1.10452 0.89548,1.99989 2,2 l 38,0 22,-22 -22,-22 -38,0 z m 142,0 -22,22 22,22 98,0 c 1.1045,-1.1e-4 1.9999,-0.89548 2,-2 l 0,-40 c -10e-5,-1.10452 -0.8955,-1.99989 -2,-2 l -98,0 z"
         style="color:#000000;font-style:normal;font-variant:normal;font-weight:normal;font-stretch:normal;font-size:medium;line-height:normal;font-family:sans-serif;text-indent:0;text-align:start;text-decoration:none;text-decoration-line:none;text-decoration-style:solid;text-decoration-color:#000000;letter-spacing:normal;word-spacing:normal;text-transform:none;direction:ltr;block-progression:tb;writing-mode:lr-tb;baseline-shift:baseline;text-anchor:start;white-space:normal;clip-rule:nonzero;display:inline;overflow:visible;visibility:visible;opacity:1;isolation:auto;mix-blend-mode:normal;color-interpolation:sRGB;color-interpolation-filters:linearRGB;solid-color:#000000;solid-opacity:1;fill:#1a1a1a;fill-opacity:1;fill-rule:evenodd;stroke:none;stroke-width:4;stroke-linecap:butt;stroke-linejoin:round;stroke-miterlimit:4;stroke-dasharray:none;stroke-dashoffset:0;stroke-opacity:1;color-rendering:auto;image-rendering:auto;shape-rendering:auto;text-rendering:auto;enable-background:accumulate"
         inkscape:connector-curvature="0" />
      <path
         sodipodi:nodetypes="cccccccccccccccccccccc"
         inkscape:connector-curvature="0"
         id="path5568"
         d="m 969.9707,670.36328 c -0.51995,0.007 -1.01663,0.21673 -1.38476,0.58399 l -20,20 c -0.78203,0.78128 -0.78203,2.04879 0,2.83007 l 38.58594,38.58594 -38.58594,38.58399 c -0.78203,0.78128 -0.78203,2.04879 0,2.83007 l 20,20 c 0.78106,0.78073 2.04706,0.78073 2.82812,0 L 1010,755.19141 l 38.5859,38.58593 c 0.7811,0.78079 2.0471,0.78079 2.8282,0 l 20,-20 c 0.782,-0.78128 0.782,-2.04879 0,-2.83007 l -38.586,-38.58399 38.586,-38.58594 c 0.782,-0.78128 0.782,-2.04879 0,-2.83007 l -20,-20 c -0.7811,-0.78079 -2.0471,-0.78079 -2.8282,0 L 1010,709.5332 971.41406,670.94727 c -0.3825,-0.38162 -0.90311,-0.59226 -1.44336,-0.58399 z"
         style="color:#000000;font-style:normal;font-variant:normal;font-weight:normal;font-stretch:normal;font-size:medium;line-height:normal;font-family:sans-serif;text-indent:0;text-align:start;text-decoration:none;text-decoration-line:none;text-decoration-style:solid;text-decoration-color:#000000;letter-spacing:normal;word-spacing:normal;text-transform:none;direction:ltr;block-progression:tb;writing-mode:lr-tb;baseline-shift:baseline;text-anchor:start;white-space:normal;clip-rule:nonzero;display:inline;overflow:visible;visibility:visible;opacity:1;isolation:auto;mix-blend-mode:normal;color-interpolation:sRGB;color-interpolation-filters:linearRGB;solid-color:#000000;solid-opacity:1;fill:#1a1a1a;fill-opacity:1;fill-rule:evenodd;stroke:none;stroke-width:4;stroke-linecap:butt;stroke-linejoin:round;stroke-miterlimit:4;stroke-dasharray:none;stroke-dashoffset:0;stroke-opacity:1;color-rendering:auto;image-rendering:auto;shape-rendering:auto;text-rendering:auto;enable-background:accumulate" />
    </g>
  </g>
</svg>
